# xmcd
#
# Track frame offsets:
# 150
# 12702
# 25947
# 40162
# 56342
# 72150
# 88950
# 103620
# 123260
# 137687
# 150905
# 162930
#
# Disc length: 2376 seconds
#
#
# Revision: 2
# Processed by: cddbd v1.5.1PL2 Copyright (c) Steve Scherf et al.
# Submitted via: FreeRIP 2.945 
#
DISCID=9609460c
DTITLE=Chitãozinho and Xororó - Fotografia
DYEAR=1984
DGENRE=Sertanejo
TTITLE0=Pago Dobrado
TTITLE1=Fotografia
TTITLE2=Metade de Alguém
TTITLE3=Alma Ferida
TTITLE4=Pés descalços
TTITLE5=Ela Chora Chora
TTITLE6=Vem Provar de Mim
TTITLE7=Estrada
TTITLE8=Canção de Amor
TTITLE9=Gosto Amargo
TTITLE10=Só Trocando Coração
TTITLE11=Filho de Maria
EXTD=
EXTT0=
EXTT1=
EXTT2=
EXTT3=
EXTT4=
EXTT5=
EXTT6=
EXTT7=
EXTT8=
EXTT9=
EXTT10=
EXTT11=
PLAYORDER=
